<?xml version="1.0" encoding="UTF-8" ?>
<!DOCTYPE svg PUBLIC "-//W3C//DTD SVG 1.1//EN" "http://www.w3.org/Graphics/SVG/1.1/DTD/svg11.dtd">
<svg width="800pt" height="129pt" viewBox="0 0 800 129" version="1.1" xmlns="http://www.w3.org/2000/svg">
<path fill="#ffffff" d=" M 0.00 0.00 L 800.00 0.00 L 800.00 129.00 L 0.00 129.00 L 0.00 0.00 Z" />
<path fill="#346df1" d=" M 2.78 7.91 C 2.49 4.50 5.34 0.98 8.91 1.37 C 20.17 1.31 31.43 1.40 42.70 1.35 C 42.72 6.32 42.76 11.29 42.62 16.26 C 34.32 16.22 26.02 16.25 17.71 16.24 C 17.69 48.36 17.73 80.47 17.69 112.59 C 25.99 112.77 34.31 112.34 42.59 112.79 C 42.90 117.65 42.66 122.53 42.67 127.40 C 31.43 127.32 20.18 127.48 8.94 127.35 C 5.93 127.46 3.38 124.95 2.97 122.05 C 2.57 119.05 2.80 116.02 2.77 113.00 C 2.80 77.97 2.75 42.94 2.78 7.91 Z" />
<path fill="#17b393" d=" M 111.26 1.35 C 122.52 1.41 133.79 1.31 145.06 1.37 C 148.64 0.98 151.46 4.51 151.23 7.91 C 151.28 45.30 151.27 82.70 151.24 120.09 C 151.40 123.59 148.85 127.42 145.08 127.37 C 133.81 127.51 122.53 127.36 111.25 127.42 C 111.21 122.48 111.20 117.54 111.27 112.60 C 119.61 112.61 127.95 112.67 136.29 112.56 C 136.27 80.49 136.27 48.41 136.30 16.33 C 127.96 16.17 119.63 16.28 111.29 16.26 C 111.19 11.29 111.21 6.32 111.26 1.35 Z" />
<path fill="#666666" d=" M 199.34 13.58 C 200.30 13.60 202.20 13.63 203.15 13.64 C 206.06 25.87 209.62 37.95 212.05 50.29 C 215.40 37.99 219.18 25.82 222.73 13.58 C 223.59 13.59 225.31 13.62 226.16 13.64 C 229.74 25.70 233.21 37.79 236.88 49.82 C 239.37 37.64 242.81 25.68 245.76 13.61 C 246.60 13.61 248.29 13.60 249.13 13.60 C 246.51 26.33 242.88 38.84 239.76 51.47 C 238.97 53.58 239.08 57.45 235.76 56.30 C 233.54 52.96 233.15 48.79 231.84 45.06 C 229.20 36.71 227.27 28.12 224.24 19.91 C 221.55 30.67 217.97 41.19 215.06 51.90 C 214.38 53.99 213.84 57.37 210.82 56.30 C 209.13 53.49 208.87 50.11 207.95 47.01 C 205.03 35.89 202.18 24.74 199.34 13.58 Z" />
<path fill="#666666" d=" M 291.45 28.82 C 294.83 24.81 300.51 22.43 305.57 24.64 C 308.21 25.31 309.20 28.23 311.21 29.63 C 313.49 27.45 315.51 24.53 318.90 24.08 C 324.65 22.52 330.87 26.90 331.38 32.86 C 331.87 40.73 331.53 48.65 331.51 56.55 C 330.77 56.42 329.30 56.17 328.56 56.04 C 327.98 49.37 328.49 42.65 328.31 35.95 C 327.51 32.87 327.06 28.85 323.60 27.60 C 320.77 26.98 317.19 26.73 315.00 29.02 C 312.65 31.35 311.64 34.76 311.69 38.01 C 311.65 44.09 311.79 50.18 311.64 56.27 C 310.54 56.27 309.44 56.28 308.34 56.28 C 308.16 49.86 308.42 43.43 308.22 37.01 C 308.04 33.64 307.32 29.68 304.09 27.88 C 299.30 25.67 292.93 28.08 291.70 33.42 C 291.26 41.09 291.73 48.80 291.49 56.48 C 290.20 56.21 288.91 55.94 287.64 55.66 C 287.79 45.29 287.66 34.92 287.71 24.55 C 288.60 24.56 290.38 24.59 291.27 24.61 C 291.31 25.66 291.40 27.76 291.45 28.82 Z" />
<path fill="#666666" d=" M 344.54 26.52 C 349.92 22.06 359.18 23.29 362.71 29.48 C 364.83 32.76 364.57 36.79 364.64 40.52 C 357.17 40.56 349.70 40.51 342.23 40.55 C 342.35 45.19 343.87 50.50 348.34 52.72 C 353.08 54.91 358.54 53.12 362.52 50.18 C 364.69 52.78 361.62 54.66 359.47 55.51 C 353.50 57.90 345.55 57.01 341.71 51.37 C 336.76 43.95 337.34 32.34 344.54 26.52 Z" />
<path fill="#666666" d=" M 374.70 28.44 C 378.46 25.60 383.12 22.58 388.05 24.24 C 392.65 25.02 395.36 29.71 395.49 34.09 C 395.68 41.62 395.66 49.17 395.47 56.71 C 394.13 56.42 392.91 55.90 391.81 55.16 C 391.67 53.11 391.75 51.06 391.80 49.01 C 391.66 43.38 392.15 37.72 391.41 32.13 C 389.87 25.59 379.88 25.66 376.66 30.74 C 373.39 35.23 375.77 40.96 375.28 46.03 C 374.94 49.30 376.12 53.06 374.31 55.98 C 373.60 56.14 372.19 56.47 371.49 56.63 C 371.21 45.93 371.41 35.22 371.38 24.52 C 372.42 24.53 373.47 24.54 374.52 24.55 C 374.58 25.85 374.63 27.14 374.70 28.44 Z" />
<path fill="#666666" d=" M 262.36 24.56 C 270.00 21.66 279.08 27.02 280.42 35.03 C 281.08 40.80 281.43 47.56 277.20 52.16 C 271.64 59.18 258.94 58.02 254.98 49.88 C 250.70 41.47 252.40 28.00 262.36 24.56 Z" />
<path fill="#346df1" d=" M 31.22 26.76 C 38.55 26.89 45.91 26.53 53.23 26.90 C 53.48 27.07 53.96 27.42 54.20 27.59 C 54.39 37.92 54.29 48.26 54.25 58.59 C 46.69 72.70 39.13 86.83 31.24 100.76 C 31.10 76.10 31.08 51.43 31.22 26.76 Z" />
<path fill="#17b393" d=" M 99.58 26.77 C 107.28 26.77 114.99 26.81 122.69 26.75 C 122.94 51.57 122.74 76.39 122.79 101.22 C 115.00 86.96 107.19 72.72 99.58 58.37 C 99.47 47.84 99.54 37.30 99.58 26.77 Z" />
<path fill="#ffffff" d=" M 263.43 27.56 C 267.25 26.67 271.97 27.08 274.38 30.58 C 278.54 36.41 278.53 45.30 273.80 50.80 C 269.46 55.66 260.42 54.11 258.06 47.98 C 255.01 41.27 255.97 30.88 263.43 27.56 Z" />
<path fill="#ffffff" d=" M 348.69 27.66 C 352.15 26.70 356.64 26.90 358.89 30.13 C 360.69 32.14 360.61 34.92 360.83 37.44 C 354.65 37.41 348.48 37.47 342.31 37.38 C 343.26 33.56 344.96 29.52 348.69 27.66 Z" />
<path fill="#43b5f5" d=" M 65.28 38.32 C 73.08 38.28 80.87 38.27 88.66 38.33 C 84.48 45.23 80.81 52.41 77.01 59.52 C 69.42 73.55 61.77 87.55 54.18 101.58 C 46.38 101.61 38.58 101.65 30.77 101.56 C 30.89 101.36 31.12 100.96 31.24 100.76 C 39.13 86.83 46.69 72.70 54.25 58.59 C 57.96 51.85 61.66 45.10 65.28 38.32 Z" />
<path fill="#26e8a7" d=" M 77.01 59.52 C 80.81 52.41 84.48 45.23 88.66 38.33 C 92.32 45.00 95.91 51.71 99.58 58.37 C 107.19 72.72 115.00 86.96 122.79 101.22 L 123.00 101.61 C 115.26 101.65 107.51 101.62 99.76 101.63 C 92.19 87.58 84.43 73.64 77.01 59.52 Z" />
<path fill="#666666" d=" M 591.44 48.65 C 594.11 48.85 596.78 49.15 599.43 49.55 C 599.76 51.26 601.19 53.29 599.91 54.91 C 598.61 57.27 595.42 56.31 593.22 56.74 C 593.21 58.31 593.20 59.88 593.20 61.45 C 592.73 61.50 591.80 61.59 591.33 61.63 C 591.31 57.30 591.28 52.97 591.44 48.65 Z" />
<path fill="#666666" d=" M 656.20 48.22 C 656.60 48.22 657.41 48.23 657.81 48.23 C 657.83 52.66 657.82 57.08 657.85 61.50 C 655.33 61.23 651.53 62.81 650.32 59.72 C 649.04 57.39 649.78 54.39 651.57 52.54 C 653.09 52.27 654.64 52.32 656.19 52.27 C 656.18 50.92 656.19 49.57 656.20 48.22 Z" />
<path fill="#666666" d=" M 664.68 48.33 C 665.16 48.31 666.10 48.27 666.57 48.25 C 666.53 49.65 666.49 51.06 666.46 52.46 C 668.11 52.39 669.79 52.35 671.46 52.32 C 672.95 55.27 673.14 58.71 671.44 61.62 C 669.18 61.59 666.92 61.50 664.68 61.45 C 664.70 57.08 664.70 52.70 664.68 48.33 Z" />
<path fill="#ffffff" d=" M 593.24 50.31 C 595.02 50.61 597.18 50.24 598.51 51.77 C 599.57 55.20 595.53 55.34 593.23 55.49 C 593.21 53.76 593.22 52.04 593.24 50.31 Z" />
<path fill="#666666" d=" M 604.32 52.40 C 608.66 50.57 611.99 56.11 609.68 59.64 C 608.50 62.61 603.48 62.49 602.30 59.58 C 600.80 57.27 601.76 53.43 604.32 52.40 Z" />
<path fill="#666666" d=" M 611.31 52.40 C 611.79 52.39 612.76 52.39 613.24 52.38 C 613.78 54.44 614.35 56.49 614.92 58.54 C 615.56 56.54 616.20 54.54 616.84 52.54 C 617.23 52.46 618.01 52.31 618.40 52.23 C 619.04 54.24 619.66 56.25 620.27 58.27 C 621.21 55.94 621.74 53.26 623.81 51.61 C 623.48 55.05 622.39 58.34 621.38 61.62 C 620.98 61.60 620.20 61.56 619.81 61.53 C 619.16 59.55 618.48 57.57 617.82 55.58 C 616.96 57.62 616.16 59.67 615.37 61.72 C 615.01 61.63 614.30 61.44 613.94 61.34 C 613.11 58.35 612.21 55.37 611.31 52.40 Z" />
<path fill="#666666" d=" M 627.42 52.55 C 628.97 52.05 630.65 52.47 632.26 52.49 C 632.41 54.05 634.05 55.89 632.69 57.26 C 630.68 57.51 628.63 57.50 626.63 57.65 C 627.20 58.32 628.32 59.65 628.89 60.31 C 630.12 60.13 631.37 59.86 632.61 59.58 C 632.60 60.07 632.58 61.06 632.57 61.56 C 630.34 61.47 627.39 62.38 626.00 60.06 C 624.75 57.73 624.90 54.04 627.42 52.55 Z" />
<path fill="#666666" d=" M 634.78 52.38 C 636.65 52.45 638.53 52.50 640.40 52.72 C 639.20 53.43 638.00 54.13 636.81 54.82 C 636.75 57.38 636.69 59.95 636.34 62.48 C 633.70 59.76 635.10 55.73 634.78 52.38 Z" />
<path fill="#666666" d=" M 642.48 52.61 C 644.06 52.16 645.73 52.38 647.36 52.36 C 647.83 54.01 648.29 55.65 648.74 57.31 C 646.45 57.39 644.16 57.47 641.89 57.60 C 642.75 58.61 643.63 59.61 644.53 60.60 C 645.53 60.33 647.53 59.80 648.53 59.54 C 647.64 62.06 644.79 62.04 642.67 61.42 C 639.67 59.56 639.68 54.62 642.48 52.61 Z" />
<path fill="#666666" d=" M 678.06 58.11 C 679.15 55.86 679.38 52.83 681.96 51.68 C 680.84 56.26 679.61 61.04 676.97 64.99 C 676.21 65.15 674.68 65.46 673.92 65.62 C 674.83 63.92 677.66 62.54 676.57 60.28 C 675.79 57.32 673.77 54.52 674.63 51.32 C 675.93 53.50 676.92 55.84 678.06 58.11 Z" />
<path fill="#ffffff" d=" M 603.50 59.02 C 603.66 57.12 603.64 55.11 604.84 53.51 C 606.53 53.24 607.61 54.44 608.62 55.58 C 608.51 56.46 608.30 58.23 608.20 59.11 C 607.65 59.48 606.57 60.20 606.03 60.57 C 605.40 60.18 604.13 59.41 603.50 59.02 Z" />
<path fill="#ffffff" d=" M 627.66 54.99 C 627.67 53.27 630.61 53.12 630.83 54.81 C 630.86 56.55 627.90 56.62 627.66 54.99 Z" />
<path fill="#ffffff" d=" M 642.93 54.90 C 643.15 53.25 646.07 53.17 646.32 54.86 C 646.05 56.41 643.17 56.48 642.93 54.90 Z" />
<path fill="#ffffff" d=" M 651.48 59.24 C 651.68 56.86 651.72 52.62 655.29 53.53 C 656.54 55.73 655.99 58.24 655.47 60.56 C 654.13 60.13 652.80 59.69 651.48 59.24 Z" />
<path fill="#ffffff" d=" M 667.17 54.23 C 670.17 51.45 671.61 56.59 670.57 59.00 C 670.73 61.41 666.63 60.40 666.58 58.55 C 666.52 57.14 666.12 55.38 667.17 54.23 Z" />
<path fill="#666666" d=" M 296.50 116.73 C 296.45 101.31 296.39 85.88 296.53 70.47 C 297.29 70.59 298.80 70.85 299.55 70.97 C 300.10 76.97 299.61 83.01 299.78 89.03 C 302.33 87.23 304.69 84.64 307.97 84.37 C 310.97 84.14 314.37 84.03 316.82 86.09 C 319.03 87.67 319.42 90.57 320.36 92.92 C 320.50 100.83 320.43 108.74 320.42 116.65 C 318.67 116.63 316.40 116.45 316.83 114.06 C 316.48 106.83 317.27 99.55 316.48 92.34 C 315.07 86.39 306.61 85.85 302.84 89.81 C 299.59 92.56 299.66 97.12 299.72 101.00 C 299.58 105.39 300.33 109.75 300.21 114.14 C 300.61 116.47 298.07 116.56 296.50 116.73 Z" />
<path fill="#666666" d=" M 414.44 116.72 C 414.42 101.30 414.29 85.88 414.50 70.46 C 415.78 70.82 417.05 71.17 418.34 71.54 C 418.23 80.41 418.24 89.29 418.33 98.17 C 419.77 97.74 421.53 97.85 422.58 96.58 C 426.42 92.76 429.63 88.37 433.50 84.57 C 434.46 84.64 436.37 84.77 437.32 84.84 C 433.52 89.79 429.20 94.31 425.05 98.96 C 429.30 105.03 434.30 110.54 438.97 116.29 C 437.89 116.35 435.71 116.46 434.63 116.52 C 430.51 111.44 426.21 106.52 422.19 101.37 C 420.89 101.30 419.58 101.22 418.29 101.16 C 418.22 105.49 418.38 109.82 418.26 114.15 C 418.79 116.56 415.94 116.47 414.44 116.72 Z" />
<path fill="#666666" d=" M 199.10 76.74 C 199.19 75.74 199.29 74.73 199.39 73.73 C 210.11 73.78 220.84 73.76 231.56 73.74 C 231.62 74.49 231.74 75.98 231.80 76.72 C 227.00 76.78 222.21 76.77 217.41 76.74 C 217.28 89.95 217.38 103.16 217.36 116.37 C 216.42 116.39 214.55 116.43 213.62 116.45 C 213.57 103.21 213.70 89.97 213.55 76.74 C 208.73 76.77 203.92 76.77 199.10 76.74 Z" />
<path fill="#fa3330" d=" M 579.86 81.60 C 581.64 81.58 583.41 81.57 585.20 81.55 C 588.36 86.97 591.72 92.29 594.51 97.92 C 593.63 99.47 592.78 101.02 591.91 102.57 C 587.86 95.60 583.86 88.60 579.86 81.60 Z" />
<path fill="#0e75f7" d=" M 574.09 81.60 C 576.00 81.59 577.94 81.59 579.86 81.60 C 583.86 88.60 587.86 95.60 591.91 102.57 C 591.15 103.84 590.33 105.11 589.59 106.38 C 588.20 105.44 587.00 104.27 586.14 102.84 C 585.18 101.18 584.28 99.49 583.35 97.82 C 580.30 92.39 577.14 87.02 574.09 81.60 Z" />
<path fill="#666666" d=" M 237.62 87.64 C 242.75 82.47 252.72 83.06 256.62 89.44 C 258.93 92.69 258.64 96.83 258.75 100.62 C 251.27 100.65 243.79 100.61 236.30 100.64 C 236.34 105.50 238.12 110.91 242.78 113.18 C 247.39 114.61 252.54 113.62 256.24 110.50 C 256.78 111.38 257.31 112.27 257.86 113.16 C 252.04 117.89 242.47 118.80 237.04 113.01 C 230.94 106.08 231.18 94.28 237.62 87.64 Z" />
<path fill="#666666" d=" M 266.52 89.56 C 270.64 82.94 281.00 82.47 286.43 87.65 C 288.61 89.67 289.01 92.75 289.74 95.47 C 288.82 95.48 286.99 95.49 286.07 95.50 C 286.11 89.00 278.57 85.53 273.10 88.04 C 269.50 89.90 267.74 94.03 267.48 97.91 C 267.14 102.54 267.39 107.70 270.60 111.38 C 275.33 116.13 285.65 113.90 286.14 106.50 C 287.04 106.50 288.85 106.51 289.76 106.51 C 288.95 109.17 288.32 112.21 285.92 113.96 C 282.15 117.27 276.61 117.47 271.99 116.16 C 267.88 114.46 265.05 110.42 264.22 106.12 C 263.07 100.60 263.45 94.42 266.52 89.56 Z" />
<path fill="#666666" d=" M 332.63 89.10 C 335.40 86.28 338.85 83.64 343.07 84.26 C 347.01 83.86 350.23 86.56 352.05 89.80 C 352.26 89.70 352.69 89.50 352.90 89.40 C 355.61 85.39 360.40 83.34 365.18 84.42 C 370.02 84.90 372.30 89.73 373.36 93.90 C 373.50 101.40 373.41 108.90 373.44 116.40 C 372.47 116.41 370.53 116.42 369.56 116.43 C 369.45 108.95 369.79 101.47 369.41 94.01 C 369.20 90.26 365.84 86.99 362.01 87.33 C 357.28 86.87 353.24 91.45 353.34 95.99 C 353.16 101.31 353.35 106.62 353.33 111.94 C 353.08 113.33 353.82 115.16 352.60 116.22 C 351.55 116.40 350.50 116.54 349.45 116.65 C 349.41 109.07 349.48 101.50 349.39 93.92 C 348.25 90.63 345.97 87.02 341.97 87.33 C 337.00 86.68 332.70 91.10 332.69 95.92 C 332.56 102.76 332.72 109.60 332.65 116.43 C 331.82 116.44 330.15 116.44 329.31 116.45 C 329.33 105.84 329.22 95.24 329.37 84.63 C 330.13 84.66 331.65 84.72 332.41 84.75 C 332.48 86.20 332.55 87.65 332.63 89.10 Z" />
<path fill="#666666" d=" M 381.08 93.47 C 381.92 88.72 386.04 84.70 390.91 84.38 C 394.73 84.06 399.11 84.08 402.05 86.95 C 404.74 89.09 405.17 92.76 405.27 95.96 C 405.37 102.78 405.01 109.61 405.65 116.42 C 404.56 116.44 403.47 116.48 402.39 116.51 C 402.00 115.03 401.62 113.55 401.27 112.07 C 397.21 116.35 390.61 118.61 385.07 115.92 C 379.81 113.29 378.80 105.12 383.54 101.50 C 388.58 97.31 395.49 98.46 401.54 98.30 C 401.41 95.28 402.15 91.66 399.56 89.43 C 395.13 85.47 385.97 86.90 384.82 93.41 C 383.88 93.42 382.02 93.46 381.08 93.47 Z" />
<path fill="#666666" d=" M 445.07 88.12 C 450.11 82.50 460.66 82.80 464.63 89.51 C 466.84 92.78 466.59 96.86 466.71 100.63 C 459.24 100.64 451.77 100.61 444.31 100.64 C 444.28 105.51 446.12 110.98 450.81 113.19 C 454.06 114.13 457.73 114.04 460.82 112.55 C 462.44 111.77 464.17 111.28 465.99 111.30 C 464.17 116.46 457.90 117.14 453.21 116.83 C 447.78 116.73 443.26 112.37 441.66 107.39 C 439.65 100.98 440.41 93.22 445.07 88.12 Z" />
<path fill="#666666" d=" M 494.14 96.74 C 491.41 91.91 494.84 85.83 500.03 84.67 C 504.59 83.92 510.17 83.70 513.55 87.47 C 515.34 89.00 515.59 91.41 515.99 93.57 C 514.95 93.59 513.91 93.60 512.88 93.62 C 511.48 87.03 502.08 85.03 497.83 89.89 C 495.68 91.90 496.81 95.55 499.27 96.72 C 504.40 99.41 511.48 98.88 515.11 104.06 C 518.53 108.92 514.40 115.65 508.95 116.48 C 502.18 118.54 492.26 115.63 492.06 107.28 C 496.45 106.41 496.24 112.15 499.84 113.04 C 504.15 114.55 509.29 114.01 512.50 110.53 C 512.50 109.12 512.51 107.72 512.53 106.32 C 507.97 100.33 498.61 102.78 494.14 96.74 Z" />
<path fill="#666666" d=" M 616.23 84.11 C 620.73 82.53 625.33 84.49 629.02 87.03 C 628.12 87.95 627.24 88.88 626.35 89.79 C 623.12 87.68 618.89 86.30 615.35 88.59 C 609.30 91.54 608.68 101.04 614.32 104.73 C 619.19 108.50 627.48 106.05 628.40 99.61 C 625.48 99.56 622.57 99.55 619.66 99.54 C 619.67 98.25 619.69 96.95 619.71 95.66 C 623.77 95.66 627.82 95.66 631.88 95.60 C 633.06 100.95 630.50 107.15 625.24 109.26 C 618.25 112.49 609.11 108.38 606.94 100.99 C 604.52 94.01 609.14 85.87 616.23 84.11 Z" />
<path fill="#666666" d=" M 634.90 84.41 C 639.88 84.60 645.38 83.39 649.89 86.09 C 657.27 90.47 657.59 102.69 650.50 107.49 C 645.91 110.70 640.00 109.31 634.78 109.43 C 634.89 101.09 634.70 92.75 634.90 84.41 Z" />
<path fill="#666666" d=" M 659.23 102.68 C 655.63 95.79 659.77 86.70 667.04 84.37 C 671.74 82.39 676.85 84.21 680.67 87.16 C 679.81 88.05 678.97 88.95 678.12 89.84 C 674.93 87.89 670.90 86.28 667.35 88.37 C 660.92 91.08 660.23 101.22 666.11 104.88 C 671.10 108.45 679.02 105.95 680.15 99.63 C 677.23 99.56 674.32 99.55 671.41 99.54 C 671.43 98.24 671.46 96.95 671.50 95.65 C 675.58 95.66 679.67 95.64 683.77 95.66 C 683.94 99.96 683.17 104.73 679.58 107.54 C 673.30 112.97 662.59 110.08 659.23 102.68 Z" />
<path fill="#666666" d=" M 473.51 84.71 C 474.26 84.70 475.78 84.69 476.54 84.68 C 476.60 86.07 476.67 87.46 476.75 88.85 C 477.03 88.71 477.60 88.44 477.88 88.30 C 480.44 85.02 484.41 83.83 488.46 84.21 C 488.42 85.04 488.35 86.69 488.31 87.52 C 483.94 87.15 478.77 88.84 477.48 93.48 C 476.90 99.65 477.40 105.88 477.28 112.07 C 477.08 113.45 477.68 115.21 476.48 116.25 C 475.73 116.36 474.24 116.57 473.50 116.67 C 473.47 106.02 473.45 95.36 473.51 84.71 Z" />
<path fill="#666666" d=" M 702.85 86.45 C 704.01 86.41 705.18 86.37 706.36 86.33 C 709.28 94.06 712.27 101.76 715.05 109.54 C 713.91 109.57 712.78 109.59 711.66 109.62 C 710.91 107.54 710.18 105.47 709.42 103.41 C 706.23 103.43 703.04 103.43 699.86 103.46 C 699.14 105.52 698.42 107.57 697.67 109.61 C 696.51 109.60 695.35 109.58 694.20 109.57 C 697.17 101.89 700.04 94.18 702.85 86.45 Z" />
<path fill="#666666" d=" M 776.44 88.09 C 777.70 87.38 778.90 85.49 780.57 86.45 C 782.40 86.93 781.83 90.68 779.81 90.51 C 778.24 90.83 777.48 88.85 776.44 88.09 Z" />
<path fill="#ffffff" d=" M 240.53 89.47 C 244.04 86.13 250.49 86.66 253.27 90.70 C 254.87 92.62 254.68 95.23 255.02 97.55 C 248.78 97.58 242.55 97.69 236.32 97.46 C 237.40 94.67 238.19 91.53 240.53 89.47 Z" />
<path fill="#ffffff" d=" M 448.51 89.45 C 452.04 86.18 458.50 86.62 461.22 90.72 C 462.73 92.67 462.69 95.24 463.06 97.57 C 456.81 97.58 450.56 97.68 444.32 97.48 C 445.39 94.67 446.14 91.50 448.51 89.45 Z" />
<path fill="#ffffff" d=" M 638.77 88.39 C 641.71 88.45 644.91 87.92 647.64 89.31 C 652.21 91.69 652.65 98.28 650.28 102.33 C 647.77 106.13 642.76 105.66 638.79 105.66 C 638.80 99.90 638.83 94.14 638.77 88.39 Z" />
<path fill="#ffffff" d=" M 700.91 100.57 C 702.21 97.05 703.48 93.52 704.76 90.00 C 705.90 93.57 707.14 97.11 708.53 100.60 C 705.98 100.60 703.44 100.59 700.91 100.57 Z" />
<path fill="#666666" d=" M 717.30 93.69 C 717.90 93.66 719.09 93.61 719.69 93.58 C 719.92 94.17 720.39 95.36 720.63 95.95 C 721.02 95.20 721.43 94.46 721.84 93.71 C 723.48 93.48 725.13 93.28 726.80 93.10 C 726.66 94.14 726.52 95.19 726.39 96.23 C 724.23 96.51 721.50 96.74 720.64 99.14 C 719.98 102.58 720.38 106.12 720.32 109.61 C 719.29 109.60 718.27 109.59 717.26 109.59 C 717.26 104.29 717.23 98.99 717.30 93.69 Z" />
<path fill="#666666" d=" M 727.91 95.93 C 731.29 91.85 739.71 92.03 741.29 97.71 C 741.90 101.63 741.46 105.63 741.58 109.58 C 737.59 108.40 733.39 111.70 729.76 109.20 C 726.74 107.46 726.48 102.46 729.50 100.61 C 732.34 98.60 735.99 99.65 739.22 99.51 C 737.80 98.06 736.59 95.44 734.18 95.69 C 732.65 96.07 731.46 97.22 730.15 98.00 C 729.38 97.33 728.61 96.66 727.91 95.93 Z" />
<path fill="#666666" d=" M 744.15 104.90 C 741.92 99.70 746.00 92.56 752.01 93.21 C 755.32 92.81 757.63 95.36 759.11 97.98 C 758.39 98.19 756.96 98.63 756.25 98.85 C 754.81 97.42 753.25 95.57 750.95 96.18 C 746.13 96.88 745.12 104.40 749.39 106.63 C 752.04 108.89 754.77 105.93 756.94 104.50 C 760.43 104.96 757.80 108.21 756.06 109.14 C 751.91 111.89 745.57 109.70 744.15 104.90 Z" />
<path fill="#666666" d=" M 761.38 95.42 C 764.72 92.08 772.11 92.15 773.99 97.04 C 774.92 101.25 774.30 105.63 774.39 109.91 C 772.79 109.48 771.15 107.94 769.58 109.27 C 766.90 111.13 763.01 110.36 761.20 107.68 C 759.70 105.69 760.01 102.57 761.99 101.01 C 764.82 98.45 768.85 99.64 772.28 99.56 C 770.82 98.01 769.46 95.21 766.88 95.73 C 765.56 96.34 764.37 97.17 763.17 97.96 C 762.38 97.22 760.84 96.77 761.38 95.42 Z" />
<path fill="#666666" d=" M 784.62 93.69 C 785.63 93.67 786.65 93.65 787.68 93.64 C 787.80 97.41 787.45 101.21 787.98 104.96 C 789.15 108.57 794.32 107.86 795.32 104.48 C 796.05 100.94 795.57 97.28 795.69 93.69 C 796.69 93.67 797.70 93.66 798.73 93.64 C 798.80 99.07 798.82 104.49 798.74 109.92 C 797.56 109.48 796.41 109.03 795.27 108.56 C 792.19 111.11 786.70 111.02 785.15 106.84 C 784.01 102.57 784.79 98.06 784.62 93.69 Z" />
<path fill="#666666" d=" M 777.86 93.74 C 778.61 93.71 780.11 93.65 780.86 93.62 C 781.15 100.34 781.55 107.15 780.73 113.84 C 780.40 116.96 776.83 117.12 774.41 116.99 C 774.52 116.40 774.74 115.22 774.85 114.63 C 775.81 114.25 776.78 113.86 777.76 113.47 C 777.94 106.89 777.80 100.31 777.86 93.74 Z" />
<path fill="#139345" d=" M 583.35 97.82 C 584.28 99.49 585.18 101.18 586.14 102.84 C 584.50 105.89 582.77 108.89 580.98 111.85 C 580.62 112.33 579.89 113.30 579.53 113.78 C 577.69 113.78 575.86 113.78 574.04 113.76 C 577.20 108.48 580.17 103.09 583.35 97.82 Z" />
<path fill="#ffffff" d=" M 384.37 105.50 C 386.32 103.79 388.32 101.69 391.08 101.45 C 394.54 101.06 398.04 101.25 401.53 101.27 C 401.51 103.62 401.51 105.97 401.52 108.32 C 398.18 112.56 392.29 115.19 387.08 112.97 C 384.10 111.61 384.30 108.26 384.37 105.50 Z" />
<path fill="#ffffff" d=" M 730.36 105.07 C 730.77 102.82 733.05 102.30 734.83 101.49 C 736.16 101.98 737.51 102.46 738.87 102.94 C 737.86 104.91 736.65 107.61 734.03 107.58 C 732.25 107.95 731.16 106.35 730.36 105.07 Z" />
<path fill="#ffffff" d=" M 763.71 105.98 C 762.66 101.09 769.02 102.05 771.94 102.58 C 771.31 106.25 766.55 109.73 763.71 105.98 Z" />
<path fill="#feb80a" d=" M 580.98 111.85 C 582.77 108.89 584.50 105.89 586.14 102.84 C 587.00 104.27 588.20 105.44 589.59 106.38 C 588.23 108.88 586.79 111.33 585.37 113.79 C 584.07 113.78 581.46 113.77 580.15 113.76 C 580.36 113.28 580.77 112.33 580.98 111.85 Z" />
</svg>
